<svg xmlns="http://www.w3.org/2000/svg" viewBox="0 68 800 264" width="800" height="264" role="img" aria-label="BIBVERIFY">
  <defs>
    <pattern id="g" width="40" height="40" patternUnits="userSpaceOnUse">
      <path d="M 40 0 L 0 0 0 40" fill="none" stroke="#18181b" stroke-width="1"/>
    </pattern>
  </defs>
  <rect x="0" y="68" width="800" height="264" fill="#09090b"/>
  <rect x="0" y="68" width="800" height="264" fill="url(#g)"/>
  <rect x="88" y="118" width="272" height="20" fill="none" stroke="#3f3f46" stroke-width="1"/><rect x="98" y="125" width="104" height="5" fill="#a1a1aa" opacity="0.42"/><rect x="440" y="118" width="272" height="20" fill="none" stroke="#3f3f46" stroke-width="1"/><rect x="450" y="125" width="172" height="5" fill="#a1a1aa" opacity="0.42"/><text x="392" y="134" font-family="ui-monospace,monospace" font-size="15" fill="#3f3f46">==</text><rect x="88" y="148" width="272" height="20" fill="none" stroke="#71717a" stroke-width="1"/><rect x="98" y="155" width="151" height="5" fill="#a1a1aa" opacity="0.42"/><rect x="440" y="148" width="272" height="20" fill="none" stroke="#06b6d4" stroke-width="1.5"/><rect x="450" y="155" width="94" height="5" fill="#06b6d4" opacity="0.9"/><text x="392" y="164" font-family="ui-monospace,monospace" font-size="15" fill="#06b6d4">!=</text><rect x="88" y="178" width="272" height="20" fill="none" stroke="#3f3f46" stroke-width="1"/><rect x="98" y="185" width="211" height="5" fill="#a1a1aa" opacity="0.42"/><rect x="440" y="178" width="272" height="20" fill="none" stroke="#3f3f46" stroke-width="1"/><rect x="450" y="185" width="95" height="5" fill="#a1a1aa" opacity="0.42"/><text x="392" y="194" font-family="ui-monospace,monospace" font-size="15" fill="#3f3f46">==</text><rect x="88" y="208" width="272" height="20" fill="none" stroke="#3f3f46" stroke-width="1"/><rect x="98" y="215" width="140" height="5" fill="#a1a1aa" opacity="0.42"/><rect x="440" y="208" width="272" height="20" fill="none" stroke="#3f3f46" stroke-width="1"/><rect x="450" y="215" width="104" height="5" fill="#a1a1aa" opacity="0.42"/><text x="392" y="224" font-family="ui-monospace,monospace" font-size="15" fill="#3f3f46">==</text><rect x="88" y="238" width="272" height="20" fill="none" stroke="#71717a" stroke-width="1"/><rect x="98" y="245" width="173" height="5" fill="#a1a1aa" opacity="0.42"/><rect x="440" y="238" width="272" height="20" fill="none" stroke="#06b6d4" stroke-width="1.5"/><rect x="450" y="245" width="86" height="5" fill="#06b6d4" opacity="0.9"/><text x="392" y="254" font-family="ui-monospace,monospace" font-size="15" fill="#06b6d4">!=</text><rect x="88" y="268" width="272" height="20" fill="none" stroke="#3f3f46" stroke-width="1"/><rect x="98" y="275" width="105" height="5" fill="#a1a1aa" opacity="0.42"/><rect x="440" y="268" width="272" height="20" fill="none" stroke="#3f3f46" stroke-width="1"/><rect x="450" y="275" width="114" height="5" fill="#a1a1aa" opacity="0.42"/><text x="392" y="284" font-family="ui-monospace,monospace" font-size="15" fill="#3f3f46">==</text>
  <!-- Only the id is drawn. The card already prints the title below the image,
       and the stack chips sit across the bottom of this band, so a label here
       would be redundant at best and half-occluded at worst. -->
  <text x="28" y="100" font-family="ui-monospace,SFMono-Regular,Menlo,monospace"
        font-size="17" fill="#06b6d4" letter-spacing="3" opacity="0.8">P15</text>
  <path d="M 14 80 h 26 M 14 80 v 26" stroke="#06b6d4" stroke-width="1.5" fill="none"/>
  <path d="M 786 320 h -26 M 786 320 v -26" stroke="#06b6d4" stroke-width="1.5" fill="none"/>
</svg>
