<svg xmlns="http://www.w3.org/2000/svg" viewBox="0 68 800 264" width="800" height="264" role="img" aria-label="BLACKWALL">
  <defs>
    <pattern id="g" width="40" height="40" patternUnits="userSpaceOnUse">
      <path d="M 40 0 L 0 0 0 40" fill="none" stroke="#18181b" stroke-width="1"/>
    </pattern>
  </defs>
  <rect x="0" y="68" width="800" height="264" fill="#09090b"/>
  <rect x="0" y="68" width="800" height="264" fill="url(#g)"/>
  <path d="M 300 88 h 200 v 200 l -16 12 l -17 -12 l -17 12 l -17 -12 l -17 12 l -17 -12 l -17 12 l -17 -12 l -17 12 l -16 -12 z" fill="#09090b" stroke="#06b6d4" stroke-width="1.75"/><rect x="322" y="120" width="112" height="5" fill="#a1a1aa" opacity="0.45"/><rect x="322" y="141" width="88" height="5" fill="#a1a1aa" opacity="0.45"/><rect x="322" y="162" width="134" height="5" fill="#a1a1aa" opacity="0.45"/><rect x="322" y="183" width="77" height="5" fill="#a1a1aa" opacity="0.45"/><rect x="322" y="204" width="115" height="5" fill="#a1a1aa" opacity="0.45"/><rect x="322" y="225" width="91" height="5" fill="#a1a1aa" opacity="0.45"/><rect x="322" y="246" width="141" height="5" fill="#a1a1aa" opacity="0.45"/><rect x="322" y="268" width="156" height="6" fill="#06b6d4" opacity="0.85"/><rect x="120" y="164" width="5" height="72" fill="#3f3f46" opacity="0.65"/><rect x="560" y="164" width="5" height="72" fill="#3f3f46" opacity="0.65"/><rect x="129" y="164" width="5" height="72" fill="#3f3f46" opacity="0.65"/><rect x="569" y="164" width="5" height="72" fill="#3f3f46" opacity="0.65"/><rect x="138" y="164" width="4" height="72" fill="#3f3f46" opacity="0.65"/><rect x="578" y="164" width="4" height="72" fill="#3f3f46" opacity="0.65"/><rect x="147" y="164" width="4" height="72" fill="#3f3f46" opacity="0.65"/><rect x="587" y="164" width="4" height="72" fill="#3f3f46" opacity="0.65"/><rect x="156" y="164" width="6" height="72" fill="#3f3f46" opacity="0.65"/><rect x="596" y="164" width="6" height="72" fill="#3f3f46" opacity="0.65"/><rect x="165" y="164" width="6" height="72" fill="#3f3f46" opacity="0.65"/><rect x="605" y="164" width="6" height="72" fill="#3f3f46" opacity="0.65"/><rect x="174" y="164" width="4" height="72" fill="#3f3f46" opacity="0.65"/><rect x="614" y="164" width="4" height="72" fill="#3f3f46" opacity="0.65"/><rect x="183" y="164" width="6" height="72" fill="#3f3f46" opacity="0.65"/><rect x="623" y="164" width="6" height="72" fill="#3f3f46" opacity="0.65"/><rect x="192" y="164" width="4" height="72" fill="#3f3f46" opacity="0.65"/><rect x="632" y="164" width="4" height="72" fill="#3f3f46" opacity="0.65"/><rect x="201" y="164" width="6" height="72" fill="#3f3f46" opacity="0.65"/><rect x="641" y="164" width="6" height="72" fill="#3f3f46" opacity="0.65"/><rect x="210" y="164" width="6" height="72" fill="#3f3f46" opacity="0.65"/><rect x="650" y="164" width="6" height="72" fill="#3f3f46" opacity="0.65"/><rect x="219" y="164" width="6" height="72" fill="#3f3f46" opacity="0.65"/><rect x="659" y="164" width="6" height="72" fill="#3f3f46" opacity="0.65"/><rect x="228" y="164" width="5" height="72" fill="#3f3f46" opacity="0.65"/><rect x="668" y="164" width="5" height="72" fill="#3f3f46" opacity="0.65"/><rect x="237" y="164" width="5" height="72" fill="#3f3f46" opacity="0.65"/><rect x="677" y="164" width="5" height="72" fill="#3f3f46" opacity="0.65"/><rect x="246" y="164" width="3" height="72" fill="#3f3f46" opacity="0.65"/><rect x="686" y="164" width="3" height="72" fill="#3f3f46" opacity="0.65"/><rect x="255" y="164" width="6" height="72" fill="#3f3f46" opacity="0.65"/><rect x="695" y="164" width="6" height="72" fill="#3f3f46" opacity="0.65"/><rect x="264" y="164" width="2" height="72" fill="#3f3f46" opacity="0.65"/><rect x="704" y="164" width="2" height="72" fill="#3f3f46" opacity="0.65"/><rect x="273" y="164" width="4" height="72" fill="#3f3f46" opacity="0.65"/><rect x="713" y="164" width="4" height="72" fill="#3f3f46" opacity="0.65"/>
  <!-- Only the id is drawn. The card already prints the title below the image,
       and the stack chips sit across the bottom of this band, so a label here
       would be redundant at best and half-occluded at worst. -->
  <text x="28" y="100" font-family="ui-monospace,SFMono-Regular,Menlo,monospace"
        font-size="17" fill="#06b6d4" letter-spacing="3" opacity="0.8">P12</text>
  <path d="M 14 80 h 26 M 14 80 v 26" stroke="#06b6d4" stroke-width="1.5" fill="none"/>
  <path d="M 786 320 h -26 M 786 320 v -26" stroke="#06b6d4" stroke-width="1.5" fill="none"/>
</svg>
